<svg xmlns="http://www.w3.org/2000/svg" xmlns:xlink="http://www.w3.org/1999/xlink" viewBox="0 0 26.3 33.25"><defs><style>.cls-1{fill:none;}.cls-2{clip-path:url(#clip-path);}.cls-3{fill:#2a2a2a;}</style><clipPath id="clip-path" transform="translate(-12.15 -8.45)"><rect class="cls-1" width="50" height="50"/></clipPath></defs><title>Asset 3</title><g id="Layer_2" data-name="Layer 2"><g id="Hero"><g id="Critical_Info" data-name="Critical Info"><g class="cls-2"><g id="_Group_" data-name="&lt;Group&gt;"><g id="_Group_2" data-name="&lt;Group&gt;"><path class="cls-3" d="M25.25,26.5a5.7,5.7,0,1,1,5.65-5.7A5.69,5.69,0,0,1,25.25,26.5Zm0-8.4a2.7,2.7,0,1,0,2.65,2.7A2.68,2.68,0,0,0,25.25,18.1Z" transform="translate(-12.15 -8.45)"/></g><g id="_Group_3" data-name="&lt;Group&gt;"><path class="cls-3" d="M25.25,41.7,15.9,31.05a13.4,13.4,0,0,1,.1-18.7,13.15,13.15,0,0,1,22.45,9.4,13.24,13.24,0,0,1-3.8,9.35Zm0-30.25a9.9,9.9,0,0,0-7.15,3A10.45,10.45,0,0,0,18,29l.05.05L25.2,37.2,32.4,29a10.46,10.46,0,0,0,3-7.3,10.25,10.25,0,0,0-3-7.3A10.06,10.06,0,0,0,25.25,11.45Z" transform="translate(-12.15 -8.45)"/></g></g></g></g></g></g></svg>