<svg xmlns="http://www.w3.org/2000/svg" viewBox="0 0 478.46 144.71"><title>piccolo-inc_logo-md</title><path d="M253.82,87c-5.23-20.45-23.42-35.76-44-36.27h-.15v0L165,50.62l-8.42,55.5c24.62-17,41.85-14.89,43.16-14.69V68.31l38.59,31.81h.11l-38.59,31.81V108.48c-2.78,0-50.19,1.24-55.86,85.36l0,0h10.7l.51,0c.54,0,1,0,1.57,0h11.06l1.69-11.13c.19-.69.35-1.4.48-2.14,1.86-11,3.37-22.06,5-33.1,10.28,0,20.56-.06,30.84-.13a48.87,48.87,0,0,0,26.07-7.32C250.21,128.76,259.12,107.7,253.82,87Z" transform="translate(-144 -50.62)" fill="#f9be58"/><polygon points="102.96 143.06 115.13 143.06 123.13 86.14 110.96 86.14 102.96 143.06" fill="#f9be58"/><path d="M264,116c-4.27,0-8.33,3.62-8.33,8a6.11,6.11,0,0,0,6.36,6.14c4.28,0,8.44-3.62,8.44-8A6.21,6.21,0,0,0,264,116Z" transform="translate(-144 -50.62)" fill="#f9be58"/><path d="M307.93,135.67c-18.86,0-32.24,16.45-32.24,34.66,0,13.7,9.21,24.45,23.36,24.45A33,33,0,0,0,320.32,186L317,177.34a23.7,23.7,0,0,1-14.36,5.38c-8.67,0-14.15-6.8-14.15-15.14,0-10.41,9.32-20.39,19.85-20.39,4.05,0,9.65,1.64,12.17,5.15l5.7-8.55C322.51,138.3,314.18,135.67,307.93,135.67Z" transform="translate(-144 -50.62)" fill="#f9be58"/><path d="M361.56,135.67c-18.87,0-32.25,16.45-32.25,34.66,0,13.7,9.22,24.45,23.36,24.45A33.07,33.07,0,0,0,374,186l-3.29-8.67a23.7,23.7,0,0,1-14.37,5.38c-8.66,0-14.14-6.8-14.14-15.14,0-10.41,9.32-20.39,19.84-20.39,4.06,0,9.66,1.64,12.18,5.15l5.7-8.55C376.14,138.3,367.81,135.67,361.56,135.67Z" transform="translate(-144 -50.62)" fill="#f9be58"/><path d="M414.41,136.11c-18.64,0-31.47,17.33-31.47,35,0,13.82,9.1,24.24,23.14,24.24,18.75,0,31.36-17.22,31.36-35C437.44,146.75,428.45,136.11,414.41,136.11Zm-6.79,48.47c-8.23,0-11.3-7.67-11.3-14.8,0-9.32,5.59-22.7,16.56-22.7,8.33,0,11.19,7.34,11.19,14.58C424.07,171.09,418.91,184.58,407.62,184.58Z" transform="translate(-144 -50.62)" fill="#f9be58"/><path d="M463,183.48c-4.17,0-4.94-3.72-4.94-7.12a32.2,32.2,0,0,1,.55-5.6l7.46-53.84h-12.5L446,171.09a41.82,41.82,0,0,0-.66,7.46c0,9.1,3.18,16.23,13.38,16.23a23.49,23.49,0,0,0,12.94-3.51l-3.07-9.43A11.07,11.07,0,0,1,463,183.48Z" transform="translate(-144 -50.62)" fill="#f9be58"/><path d="M510.48,136.11c-18.64,0-31.47,17.33-31.47,35,0,13.82,9.1,24.24,23.14,24.24,18.75,0,31.36-17.22,31.36-35C533.51,146.75,524.52,136.11,510.48,136.11Zm-6.8,48.47c-8.22,0-11.29-7.67-11.29-14.8,0-9.32,5.59-22.7,16.56-22.7,8.33,0,11.18,7.34,11.18,14.58C520.13,171.09,515,184.58,503.68,184.58Z" transform="translate(-144 -50.62)" fill="#f9be58"/><polygon points="405.55 143.32 411.07 143.32 414.71 117.47 409.18 117.47 405.55 143.32" fill="#f9be58"/><path d="M557.26,158.68a3.82,3.82,0,0,0-3.78,3.64,2.78,2.78,0,0,0,2.89,2.79,3.86,3.86,0,0,0,3.83-3.64A2.82,2.82,0,0,0,557.26,158.68Z" transform="translate(-144 -50.62)" fill="#f9be58"/><path d="M577.73,167.55a8.77,8.77,0,0,0-7.22,4.48l.55-3.93h-5.53L561.9,194h5.57l1.9-13.55c.39-3.09,2-6.43,5.57-6.43,2.84,0,3.89,1.75,3.89,4.39a14.64,14.64,0,0,1-.15,2L576.74,194h5.53l2.29-16.34a21.74,21.74,0,0,0,.2-2.59C584.76,170.39,582.56,167.55,577.73,167.55Z" transform="translate(-144 -50.62)" fill="#f9be58"/><path d="M602.73,167.6c-8.56,0-14.64,7.47-14.64,15.74,0,6.22,4.19,11.1,10.61,11.1a15,15,0,0,0,9.66-4l-1.49-3.93a10.8,10.8,0,0,1-6.53,2.44c-3.93,0-6.42-3.09-6.42-6.88,0-4.73,4.23-9.26,9-9.26,1.85,0,4.39.75,5.53,2.34l2.59-3.88C609.36,168.79,605.57,167.6,602.73,167.6Z" transform="translate(-144 -50.62)" fill="#f9be58"/><path d="M619,186.43a4.74,4.74,0,0,0-4.63,4.58,3.38,3.38,0,0,0,3.48,3.43,4.71,4.71,0,0,0,4.59-4.58A3.32,3.32,0,0,0,619,186.43Z" transform="translate(-144 -50.62)" fill="#f9be58"/></svg>